<svg width="18" height="20" viewBox="0 0 18 20" fill="none" xmlns="http://www.w3.org/2000/svg">
<path d="M15.6667 5.83333H12.3334V3.33333C12.3334 1.4925 10.8409 0 9.00008 0C7.15925 0 5.66675 1.4925 5.66675 3.33333V5.83333H2.33341L0.666748 20H17.3334L15.6667 5.83333ZM6.50008 3.33333C6.50008 1.955 7.62175 0.833333 9.00008 0.833333C10.3784 0.833333 11.5001 1.955 11.5001 3.33333V5.83333H6.50008V3.33333ZM2.54091 18.3333L3.81508 7.5H5.66675V8.75C5.66675 8.98 5.85342 9.16667 6.08342 9.16667C6.31342 9.16667 6.50008 8.98 6.50008 8.75V7.5H11.5001V8.75C11.5001 8.98 11.6867 9.16667 11.9167 9.16667C12.1467 9.16667 12.3334 8.98 12.3334 8.75V7.5H14.1851L15.4592 18.3333H2.54091Z" fill="#333333"/>
</svg>
